<svg xmlns="http://www.w3.org/2000/svg" xmlns:xlink="http://www.w3.org/1999/xlink" width="86.992" height="109" viewBox="0 0 86.992 109">
  <defs>
    <clipPath id="clip-LOGO">
      <rect width="86.992" height="109"/>
    </clipPath>
  </defs>
  <g id="LOGO" clip-path="url(#clip-LOGO)">
    <g id="Grupo_60" data-name="Grupo 60" transform="translate(-9.64 -33.6)">
      <path id="Trazado_97" data-name="Trazado 97" d="M6240.006,335.939h25.634V290h19.041" transform="translate(-6230.366 -222.839)" fill="none" stroke="#9b1987" stroke-width="1"/>
      <path id="Trazado_98" data-name="Trazado 98" d="M6283.84,249.04h15.52v12.939H6321.5" transform="translate(-6231.224 -181.699)" fill="none" stroke="#f0b41f" stroke-width="1"/>
      <path id="Trazado_99" data-name="Trazado 99" d="M6262.279,240.139v15.494h36.134V274.26" transform="translate(-6244.099 -206.539)" fill="none" stroke="#1777bc" stroke-width="1"/>
      <path id="Trazado_100" data-name="Trazado 100" d="M6291.48,283.52v15.04h17.2v22.863" transform="translate(-248.383 6404.741) rotate(-90)" fill="none" stroke="#01aae7" stroke-width="1"/>
      <g id="Elipse_92" data-name="Elipse 92" transform="translate(32.634 65.161)" fill="#fff" stroke="#9b1987" stroke-width="1">
        <circle cx="2.5" cy="2.5" r="2.5" stroke="none"/>
        <circle cx="2.5" cy="2.5" r="2" fill="none"/>
      </g>
      <g id="Elipse_93" data-name="Elipse 93" transform="translate(47.617 115.741) rotate(-90)" fill="#fff" stroke="#01aae7" stroke-width="1">
        <circle cx="2.5" cy="2.5" r="2.5" stroke="none"/>
        <circle cx="2.5" cy="2.5" r="2" fill="none"/>
      </g>
      <g id="Elipse_94" data-name="Elipse 94" transform="translate(32.634 110.3)" fill="#fff" stroke="#000" stroke-width="1">
        <circle cx="2.5" cy="2.5" r="2.5" stroke="none"/>
        <circle cx="2.5" cy="2.5" r="2" fill="none"/>
      </g>
      <g id="Elipse_95" data-name="Elipse 95" transform="translate(47.617 98.741) rotate(-90)" fill="#fff" stroke="#01aae7" stroke-width="1">
        <circle cx="2.5" cy="2.5" r="2.5" stroke="none"/>
        <circle cx="2.5" cy="2.5" r="2" fill="none"/>
      </g>
      <g id="Elipse_96" data-name="Elipse 96" transform="translate(65.336 64.661)" fill="#fff" stroke="#f0b41f" stroke-width="1">
        <circle cx="2.5" cy="2.5" r="2.5" stroke="none"/>
        <circle cx="2.5" cy="2.5" r="2" fill="none"/>
      </g>
      <g id="Elipse_97" data-name="Elipse 97" transform="translate(65.336 77.78)" fill="#fff" stroke="#f0b41f" stroke-width="1">
        <circle cx="2.5" cy="2.5" r="2.5" stroke="none"/>
        <circle cx="2.5" cy="2.5" r="2" fill="none"/>
      </g>
      <g id="Elipse_98" data-name="Elipse 98" transform="translate(51.754 46.196)" fill="#fff" stroke="#1777bc" stroke-width="1">
        <circle cx="2.5" cy="2.5" r="2.5" stroke="none"/>
        <circle cx="2.5" cy="2.5" r="2" fill="none"/>
      </g>
      <g id="Elipse_99" data-name="Elipse 99" transform="translate(15.9 46.196)" fill="#fff" stroke="#1777bc" stroke-width="1">
        <circle cx="2.5" cy="2.5" r="2.5" stroke="none"/>
        <circle cx="2.5" cy="2.5" r="2" fill="none"/>
      </g>
      <path id="Trazado_101" data-name="Trazado 101" d="M6265.5,290" transform="translate(-6230.426 -223.839)" fill="none" stroke="#707070" stroke-width="1"/>
      <path id="Trazado_102" data-name="Trazado 102" d="M41.66,57.814H11.94V0h-1.9" transform="translate(15.82 138.2) rotate(-90)" fill="none" stroke="#a0cd5b" stroke-width="1"/>
      <g id="Elipse_100" data-name="Elipse 100" transform="translate(71.134 128.76) rotate(-90)" fill="#fff" stroke="#a0cd5b" stroke-width="1">
        <circle cx="2.5" cy="2.5" r="2.5" stroke="none"/>
        <circle cx="2.5" cy="2.5" r="2" fill="none"/>
      </g>
      <g id="Elipse_101" data-name="Elipse 101" transform="translate(71.134 98.741) rotate(-90)" fill="#fff" stroke="#020202" stroke-width="1">
        <circle cx="2.5" cy="2.5" r="2.5" stroke="none"/>
        <circle cx="2.5" cy="2.5" r="2" fill="none"/>
      </g>
      <g id="Elipse_102" data-name="Elipse 102" transform="translate(51.754 64.661)" fill="#fff" stroke="#000" stroke-width="1">
        <circle cx="2.5" cy="2.5" r="2.5" stroke="none"/>
        <circle cx="2.5" cy="2.5" r="2" fill="none"/>
      </g>
      <path id="Trazado_103" data-name="Trazado 103" d="M6983.836,80.28V36h-28.6" transform="translate(-6892)" fill="none" stroke="#e00e40" stroke-width="1"/>
      <g id="Elipse_103" data-name="Elipse 103" transform="translate(89.336 77.78)" fill="#fff" stroke="#020202" stroke-width="1">
        <circle cx="2.5" cy="2.5" r="2.5" stroke="none"/>
        <circle cx="2.5" cy="2.5" r="2" fill="none"/>
      </g>
      <g id="Elipse_104" data-name="Elipse 104" transform="translate(89.336 33.661)" fill="#fff" stroke="#e00e40" stroke-width="1">
        <circle cx="2.5" cy="2.5" r="2.5" stroke="none"/>
        <circle cx="2.5" cy="2.5" r="2" fill="none"/>
      </g>
      <path id="Trazado_104" data-name="Trazado 104" d="M6987.72,139.7h-79.761V126.08" transform="translate(-6892)" fill="none" stroke="#eb902f" stroke-width="1"/>
      <g id="Elipse_105" data-name="Elipse 105" transform="translate(13.459 142.2) rotate(-90)" fill="#fff" stroke="#eb902f" stroke-width="1">
        <circle cx="2.5" cy="2.5" r="2.5" stroke="none"/>
        <circle cx="2.5" cy="2.5" r="2" fill="none"/>
      </g>
      <g id="Elipse_106" data-name="Elipse 106" transform="translate(13.32 123.76)" fill="#fff" stroke="#000" stroke-width="1">
        <circle cx="2.5" cy="2.5" r="2.5" stroke="none"/>
        <circle cx="2.5" cy="2.5" r="2" fill="none"/>
      </g>
    </g>
  </g>
</svg>
